<svg xmlns="http://www.w3.org/2000/svg" width="1024" height="1024" viewBox="0 0 1024 1024">
<g>
<path d="M 398.23 688.36 C384.34,693.66 372.64,697.99 372.23,697.98 C371.83,697.97 372.45,697.18 373.62,696.23 C376.98,693.49 391.37,681.29 420.49,656.49 C435.34,643.83 449.12,632.13 451.09,630.49 C453.06,628.85 459.97,623.00 466.43,617.50 C472.90,612.00 479.85,606.15 481.87,604.50 C483.89,602.85 491.80,596.10 499.44,589.50 C507.08,582.90 516.52,574.80 520.41,571.50 C537.70,556.87 555.90,541.44 560.50,537.53 C563.25,535.19 569.33,530.04 574.00,526.08 C578.67,522.12 586.23,515.70 590.80,511.82 C595.36,507.93 599.30,504.97 599.56,505.22 C599.81,505.48 575.09,529.95 544.62,559.60 C495.03,607.85 485.00,617.95 489.26,615.35 C489.94,614.93 504.90,603.80 522.50,590.62 C559.11,563.19 590.88,538.68 619.94,515.45 C624.03,512.18 627.82,509.20 628.35,508.84 C628.88,508.48 621.94,500.37 612.91,490.82 C603.88,481.27 588.94,465.26 579.70,455.25 L 562.89 437.05 L 583.11 415.02 C594.24,402.91 603.86,393.00 604.49,393.00 C605.13,393.00 610.64,398.51 616.75,405.25 C622.85,411.99 629.12,418.87 630.67,420.55 C632.23,422.24 641.60,432.57 651.50,443.52 C661.40,454.47 671.53,465.60 674.00,468.26 L 678.50 473.10 L 696.00 458.80 C729.97,431.04 745.37,418.54 754.50,411.33 C760.97,406.21 772.67,396.61 785.62,385.79 L 793.75 379.00 L 827.62 379.04 L 861.50 379.07 L 858.90 381.29 C854.04,385.42 820.52,414.45 817.50,417.13 C815.85,418.60 802.31,430.31 787.40,443.15 C756.44,469.83 727.57,494.87 721.04,500.71 L 716.59 504.69 L 724.04 513.06 C728.14,517.67 734.22,524.37 737.55,527.97 C745.94,537.02 760.70,553.52 772.00,566.46 C777.22,572.45 785.63,581.87 790.67,587.40 C795.71,592.93 799.62,597.81 799.36,598.23 C799.10,598.65 781.20,599.00 759.60,599.00 L 720.31 599.00 L 701.35 579.75 C690.92,569.16 679.08,557.01 675.03,552.75 C670.98,548.49 667.27,545.00 666.79,545.00 C666.31,545.00 663.57,546.73 660.71,548.85 C656.02,552.32 621.72,576.63 597.00,594.00 C579.51,606.30 556.57,622.60 549.50,627.76 C543.51,632.13 537.21,634.92 506.00,647.03 C485.92,654.81 466.12,662.44 462.00,663.99 C457.88,665.53 447.52,669.47 439.00,672.75 C430.48,676.03 412.13,683.06 398.23,688.36 ZM 482.89 583.25 C475.36,589.71 468.71,595.00 468.10,595.00 C467.31,595.00 467.00,572.94 467.00,516.50 L 467.00 438.00 L 358.50 438.00 C298.83,438.00 250.00,437.66 250.01,437.25 C250.01,436.84 254.07,429.08 259.02,420.00 C263.97,410.92 269.69,400.24 271.73,396.25 L 275.44 389.00 L 585.26 389.00 L 581.88 392.93 C574.21,401.87 554.05,424.05 546.61,431.75 L 538.65 440.00 L 517.00 440.00 L 516.92 497.25 L 516.85 554.50 L 506.71 563.00 C501.14,567.67 490.42,576.79 482.89,583.25 ZM 392.00 582.70 L 377.50 592.96 L 273.75 592.98 C197.24,592.99 170.00,592.70 170.00,591.87 C170.00,591.25 172.78,585.73 176.18,579.62 C179.58,573.50 185.61,562.42 189.59,555.00 L 196.82 541.50 L 324.09 541.25 L 451.37 540.99 L 439.44 549.32 C424.88,559.48 411.12,569.16 392.00,582.70 ZM 363.92 510.46 L 359.00 514.00 L 284.16 514.00 C243.01,514.00 209.09,513.76 208.79,513.46 C208.29,512.96 230.74,470.78 234.00,466.11 L 235.50 463.96 L 333.38 464.23 L 431.25 464.50 L 409.38 479.32 C381.34,498.32 370.04,506.06 363.92,510.46 Z" fill="rgb(24,24,24)"/>
<path d="M 0.00 512.00 L 0.00 0.00 L 512.00 0.00 L 1024.00 0.00 L 1024.00 512.00 L 1024.00 1024.00 L 512.00 1024.00 L 0.00 1024.00 L 0.00 512.00 ZM 398.23 688.36 C412.13,683.06 430.48,676.03 439.00,672.75 C447.52,669.47 457.88,665.53 462.00,663.99 C466.12,662.44 485.92,654.81 506.00,647.03 C537.21,634.92 543.51,632.13 549.50,627.76 C556.57,622.60 579.51,606.30 597.00,594.00 C621.72,576.63 656.02,552.32 660.71,548.85 C663.57,546.73 666.31,545.00 666.79,545.00 C667.27,545.00 670.98,548.49 675.03,552.75 C679.08,557.01 690.92,569.16 701.35,579.75 L 720.31 599.00 L 759.60 599.00 C781.20,599.00 799.10,598.65 799.36,598.23 C799.62,597.81 795.71,592.93 790.67,587.40 C785.63,581.87 777.22,572.45 772.00,566.46 C760.70,553.52 745.94,537.02 737.55,527.97 C734.22,524.37 728.14,517.67 724.04,513.06 L 716.59 504.69 L 721.04 500.71 C727.57,494.87 756.44,469.83 787.40,443.15 C802.31,430.31 815.85,418.60 817.50,417.13 C820.52,414.45 854.04,385.42 858.90,381.29 L 861.50 379.07 L 827.62 379.04 L 793.75 379.00 L 785.62 385.79 C772.67,396.61 760.97,406.21 754.50,411.33 C745.37,418.54 729.97,431.04 696.00,458.80 L 678.50 473.10 L 674.00 468.26 C671.53,465.60 661.40,454.47 651.50,443.52 C641.60,432.57 632.23,422.24 630.67,420.55 C629.12,418.87 622.85,411.99 616.75,405.25 C610.64,398.51 605.13,393.00 604.49,393.00 C603.86,393.00 594.24,402.91 583.11,415.02 L 562.89 437.05 L 579.70 455.25 C588.94,465.26 603.88,481.27 612.91,490.82 C621.94,500.37 628.88,508.48 628.35,508.84 C627.82,509.20 624.03,512.18 619.94,515.45 C590.88,538.68 559.11,563.19 522.50,590.62 C504.90,603.80 489.94,614.93 489.26,615.35 C485.00,617.95 495.03,607.85 544.62,559.60 C575.09,529.95 599.81,505.48 599.56,505.22 C599.30,504.97 595.36,507.93 590.80,511.82 C586.23,515.70 578.67,522.12 574.00,526.08 C569.33,530.04 563.25,535.19 560.50,537.53 C555.90,541.44 537.70,556.87 520.41,571.50 C516.52,574.80 507.08,582.90 499.44,589.50 C491.80,596.10 483.89,602.85 481.87,604.50 C479.85,606.15 472.90,612.00 466.43,617.50 C459.97,623.00 453.06,628.85 451.09,630.49 C449.12,632.13 435.34,643.83 420.49,656.49 C391.37,681.29 376.98,693.49 373.62,696.23 C372.45,697.18 371.83,697.97 372.23,697.98 C372.64,697.99 384.34,693.66 398.23,688.36 ZM 482.89 583.25 C490.42,576.79 501.14,567.67 506.71,563.00 L 516.85 554.50 L 516.92 497.25 L 517.00 440.00 L 527.82 440.00 L 538.65 440.00 L 546.61 431.75 C554.05,424.05 574.21,401.87 581.88,392.93 L 585.26 389.00 L 430.35 389.00 L 275.44 389.00 L 271.73 396.25 C269.69,400.24 263.97,410.92 259.02,420.00 C254.07,429.08 250.01,436.84 250.01,437.25 C250.00,437.66 298.83,438.00 358.50,438.00 L 467.00 438.00 L 467.00 516.50 C467.00,572.94 467.31,595.00 468.10,595.00 C468.71,595.00 475.36,589.71 482.89,583.25 ZM 392.00 582.70 C411.12,569.16 424.88,559.48 439.44,549.32 L 451.37 540.99 L 324.09 541.25 L 196.82 541.50 L 189.59 555.00 C185.61,562.42 179.58,573.50 176.18,579.62 C172.78,585.73 170.00,591.25 170.00,591.87 C170.00,592.70 197.24,592.99 273.75,592.98 L 377.50 592.96 L 392.00 582.70 ZM 363.92 510.46 C370.04,506.06 381.34,498.32 409.38,479.32 L 431.25 464.50 L 333.38 464.23 L 235.50 463.96 L 234.00 466.11 C230.74,470.78 208.29,512.96 208.79,513.46 C209.09,513.76 243.01,514.00 284.16,514.00 L 359.00 514.00 L 363.92 510.46 Z" fill="rgb(253,253,253)"/>
</g>
</svg>